<svg width="65" height="44" viewBox="0 0 65 44" fill="none" xmlns="http://www.w3.org/2000/svg">
<path fill-rule="evenodd" clip-rule="evenodd" d="M15.1454 11.732C16.0216 9.0142 18.6367 7 21.7965 7C24.9562 7 27.5713 9.0142 28.4475 11.732L21.7965 11.732L15.1454 11.732ZM30.5823 11.9856C30.5646 11.9007 30.5456 11.8161 30.5254 11.732C29.597 7.87335 26.0413 5 21.7965 5C17.5517 5 13.9959 7.87335 13.0676 11.7321C13.0473 11.8161 13.0284 11.9007 13.0106 11.9856H4.50023C4.17694 11.9856 3.93864 12.2878 4.01401 12.6022L10.0548 37.7984C10.1087 38.0232 10.3098 38.1818 10.541 38.1818H33.0521C33.2833 38.1818 33.4844 38.0232 33.5383 37.7984L39.579 12.6022C39.6544 12.2878 39.4161 11.9856 39.0928 11.9856H30.5823ZM14.8313 13.7321L12.8313 13.7321H6.0214L11.3726 36.052C11.4265 36.2768 11.6276 36.4354 11.8588 36.4354H31.7342C31.9655 36.4354 32.1666 36.2768 32.2205 36.052L37.5717 13.7321L14.8313 13.7321Z" fill="white"/>
<path d="M55.944 31.144C54.648 31.144 53.488 30.8 52.464 30.112C51.456 29.424 50.664 28.44 50.088 27.16C49.528 25.864 49.248 24.344 49.248 22.6C49.248 20.856 49.528 19.344 50.088 18.064C50.664 16.768 51.456 15.776 52.464 15.088C53.488 14.4 54.648 14.056 55.944 14.056C57.24 14.056 58.392 14.4 59.4 15.088C60.424 15.776 61.224 16.768 61.8 18.064C62.376 19.344 62.664 20.856 62.664 22.6C62.664 24.344 62.376 25.864 61.8 27.16C61.224 28.44 60.424 29.424 59.4 30.112C58.392 30.8 57.24 31.144 55.944 31.144ZM55.944 29.56C56.92 29.56 57.776 29.288 58.512 28.744C59.264 28.2 59.848 27.408 60.264 26.368C60.68 25.328 60.888 24.072 60.888 22.6C60.888 21.128 60.68 19.872 60.264 18.832C59.848 17.792 59.264 17 58.512 16.456C57.776 15.912 56.92 15.64 55.944 15.64C54.968 15.64 54.104 15.912 53.352 16.456C52.616 17 52.04 17.792 51.624 18.832C51.208 19.872 51 21.128 51 22.6C51 24.072 51.208 25.328 51.624 26.368C52.04 27.408 52.616 28.2 53.352 28.744C54.104 29.288 54.968 29.56 55.944 29.56Z" fill="white"/>
</svg>
